#!OML:ASF H:\LiuWeirdWalks\Patient Classification 1\Patient 1\Session 1\male.ASF
:FULLY-SPECIFIED
:DEGREES
393
root 0.0118673 17.87 -25.6487 3.08946 10.3206 3.03724
lowerback 3.81765 -1.10303 -2.51902
upperback 0.599354 -1.52643 2.76197
thorax -1.38246 -0.74669 4.33789
lowerneck -13.9018 0.0889073 3.04939
upperneck 25.3658 1.15766 -6.58696
head 10.4602 0.061664 -2.72089
rclavicle -9.54166e-015 0
rhumerus -27.2518 -26.734 -7.99333
rradius 32.2337
rwrist -6.3022
rhand -20.167 -5.15969
rfingers 7.12502
rthumb 6.17861 -35.0496
lclavicle -9.54166e-015 0
lhumerus -17.6124 22.6165 17.5996
lradius 29.6736
lwrist -0.227226
lhand -13.2948 5.78872
lfingers 7.12502
lthumb 12.809 35.3757
rfemur -8.48762 -2.97745 15.5261
rtibia 33.3922
rfoot -17.0832 -27.8261
rtoes -1.63793
lfemur -5.72804 -2.47417 -17.7602
ltibia 22.831
lfoot -11.251 12.4631
ltoes -12.0835
394
root -0.0024962 17.8668 -25.639 3.07202 10.4551 3.11474
lowerback 3.82047 -1.13769 -2.42466
upperback 0.599975 -1.56837 2.7835
thorax -1.38143 -0.768047 4.30873
lowerneck -13.8647 0.0411846 2.99644
upperneck 25.3579 1.13016 -6.68437
head 10.4487 0.0333493 -2.74983
rclavicle -7.45443e-015 -1.59028e-015
rhumerus -27.3201 -26.7696 -7.95787
rradius 32.2274
rwrist -6.1478
rhand -20.0959 -5.07754
rfingers 7.12502
rthumb 6.2472 -34.9654
lclavicle -7.45443e-015 -1.59028e-015
lhumerus -17.5694 22.6731 17.6119
lradius 29.6471
lwrist -0.205795
lhand -13.2823 5.85284
lfingers 7.12502
lthumb 12.8211 35.4391
rfemur -8.3839 -2.93507 15.5206
rtibia 33.3833
rfoot -17.2184 -27.9789
rtoes -1.49518
lfemur -5.71935 -2.44806 -17.7765
ltibia 22.8756
lfoot -11.2606 12.339
ltoes -12.0829
395
root -0.0167388 17.8637 -25.629 3.05876 10.5933 3.19089
lowerback 3.83368 -1.17218 -2.32555
upperback 0.593849 -1.60982 2.81042
thorax -1.39329 -0.788817 4.28287
lowerneck -13.8459 -0.0300204 2.89636
upperneck 25.379 1.07763 -6.7639
head 10.4499 -0.00938598 -2.76831
rclavicle 1.43125e-014 -2.8625e-014
rhumerus -27.3894 -26.8196 -7.90329
rradius 32.2073
rwrist -5.93205
rhand -20.0494 -5.02064
rfingers 7.12502
rthumb 6.29214 -34.9072
lclavicle 1.43125e-014 -2.8625e-014
lhumerus -17.5416 22.6788 17.626
lradius 29.6419
lwrist -0.141848
lhand -13.2679 5.8971
lfingers 7.12502
lthumb 12.8349 35.4825
rfemur -8.2785 -2.89982 15.516
rtibia 33.3671
rfoot -17.3535 -28.1252
rtoes -1.34392
lfemur -5.72254 -2.40255 -17.7895
ltibia 22.9357
lfoot -11.2729 12.1962
ltoes -12.0952
396
root -0.0309739 17.8608 -25.619 3.04474 10.7298 3.25661
lowerback 3.83496 -1.2078 -2.21295
upperback 0.594478 -1.65203 2.84227
thorax -1.39178 -0.810375 4.25409
lowerneck -13.8748 -0.0557176 2.87148
upperneck 25.4204 1.08004 -6.87677
head 10.4715 -0.0244761 -2.8058
rclavicle -1.86858e-014 -2.22639e-014
rhumerus -27.4476 -26.8384 -7.86402
rradius 32.1985
rwrist -5.8072
rhand -20.0711 -5.03069
rfingers 7.12502
rthumb 6.27116 -34.9179
lclavicle -1.86858e-014 -2.22639e-014
lhumerus -17.5126 22.7232 17.6344
lradius 29.6304
lwrist -0.127613
lhand -13.2534 5.91223
lfingers 7.12502
lthumb 12.8489 35.4967
rfemur -8.17138 -2.86092 15.5236
rtibia 33.3434
rfoot -17.488 -28.2707
rtoes -1.18283
lfemur -5.73852 -2.33768 -17.7889
ltibia 23.0189
lfoot -11.2871 12.0371
ltoes -12.1547
397
root -0.0454029 17.8579 -25.6091 3.03002 10.8593 3.2984
lowerback 3.84969 -1.24452 -2.08771
upperback 0.582347 -1.6948 2.89282
thorax -1.4108 -0.831679 4.23827
lowerneck -13.9233 -0.0239746 2.93589
upperneck 25.4711 1.15689 -7.04566
head 10.5054 -0.00375382 -2.86996
rclavicle -3.76697e-014 1.27222e-014
rhumerus -27.4837 -26.7684 -7.8423
rradius 32.2101
rwrist -5.80953
rhand -20.1499 -5.09537
rfingers 7.12502
rthumb 6.19515 -34.9848
lclavicle -3.76697e-014 1.27222e-014
lhumerus -17.5086 22.7761 17.6381
lradius 29.6158
lwrist -0.148933
lhand -13.2254 5.87796
lfingers 7.12502
lthumb 12.8759 35.4608
rfemur -8.06906 -2.8057 15.5607
rtibia 33.3131
rfoot -17.6033 -28.4263
rtoes -1.02998
lfemur -5.77451 -2.26256 -17.7595
ltibia 23.1295
lfoot -11.3019 11.8724
ltoes -12.2579
398
root -0.0604141 17.8552 -25.5994 3.01186 10.9827 3.31508
lowerback 3.86603 -1.27473 -1.94338
upperback 0.57094 -1.72791 2.94858
thorax -1.43134 -0.848217 4.21669
lowerneck -13.9977 0.0352771 3.05072
upperneck 25.5361 1.26319 -7.22425
head 10.5518 0.0336419 -2.94334
rclavicle 3.98563e-014 -1.11319e-014
rhumerus -27.5322 -26.6821 -7.82549
rradius 32.2291
rwrist -5.89496
rhand -20.2432 -5.18278
rfingers 7.12502
rthumb 6.10505 -35.0748
lclavicle 3.98563e-014 -1.11319e-014
lhumerus -17.4895 22.8172 17.6409
lradius 29.6009
lwrist -0.191952
lhand -13.1948 5.81743
lfingers 7.12502
lthumb 12.9054 35.3984
rfemur -7.97112 -2.72753 15.6321
rtibia 33.2793
rfoot -17.7105 -28.6009
rtoes -0.864438
lfemur -5.82944 -2.18837 -17.7001
ltibia 23.2691
lfoot -11.3191 11.7139
ltoes -12.403
399
root -0.0760198 17.8524 -25.5895 2.98969 11.1048 3.31895
lowerback 3.88702 -1.30503 -1.79777
upperback 0.554846 -1.76077 3.01245
thorax -1.45919 -0.864468 4.20306
lowerneck -14.0402 0.0826348 3.14686
upperneck 25.5828 1.35399 -7.3921
head 10.5846 0.0640042 -3.01088
rclavicle -1.2921e-014 -2.38542e-014
rhumerus -27.5716 -26.5648 -7.82257
rradius 32.2584
rwrist -6.07122
rhand -20.311 -5.25966
rfingers 7.12502
rthumb 6.03952 -35.1536
lclavicle -1.2921e-014 -2.38542e-014
lhumerus -17.4803 22.8453 17.6387
lradius 29.5948
lwrist -0.247578
lhand -13.1721 5.7807
lfingers 7.12502
lthumb 12.9273 35.3603
rfemur -7.87347 -2.63595 15.7228
rtibia 33.2476
rfoot -17.8058 -28.7907
rtoes -0.712456
lfemur -5.89527 -2.11723 -17.6241
ltibia 23.4332
lfoot -11.3425 11.5567
ltoes -12.5541
400
root -0.0923259 17.8492 -25.5799 2.9697 11.2349 3.33435
lowerback 3.92408 -1.33507 -1.68029
upperback 0.529846 -1.79423 3.07792
thorax -1.50434 -0.8805 4.20782
lowerneck -14.0652 0.109328 3.21388
upperneck 25.6189 1.41774 -7.54206
head 10.6083 0.0815964 -3.07002
rclavicle 2.03754e-014 -1.74931e-014
rhumerus -27.6173 -26.4781 -7.80093
rradius 32.2704
rwrist -6.2222
rhand -20.3276 -5.28419
rfingers 7.12502
rthumb 6.02352 -35.1786
lclavicle 2.03754e-014 -1.74931e-014
lhumerus -17.4759 22.7918 17.6421
lradius 29.6175
lwrist -0.186858
lhand -13.1686 5.77031
lfingers 7.12502
lthumb 12.9307 35.3497
rfemur -7.7803 -2.5444 15.8058
rtibia 33.2242
rfoot -17.9175 -28.9888
rtoes -0.535971
lfemur -5.97475 -2.05824 -17.5585
ltibia 23.6162
lfoot -11.3663 11.4023
ltoes -12.702
401
root -0.109075 17.846 -25.5701 2.95299 11.3714 3.37232
lowerback 3.96877 -1.36344 -1.59113
upperback 0.501311 -1.82658 3.13638
thorax -1.55687 -0.895722 4.22165
lowerneck -14.0431 0.0745464 3.17385
upperneck 25.6298 1.40378 -7.62958
head 10.6076 0.0615324 -3.09679
rclavicle -2.80286e-014 -6.36111e-015
rhumerus -27.6788 -26.4248 -7.76061
rradius 32.2653
rwrist -6.30682
rhand -20.2908 -5.27119
rfingers 7.12502
rthumb 6.0591 -35.1646
lclavicle -2.80286e-014 -6.36111e-015
lhumerus -17.4707 22.6851 17.6444
lradius 29.6622
lwrist -0.0809265
lhand -13.1583 5.7696
lfingers 7.12502
lthumb 12.9406 35.3483
rfemur -7.69199 -2.46165 15.8662
rtibia 33.2152
rfoot -18.0264 -29.1908
rtoes -0.357867
lfemur -6.05921 -2.00946 -17.5162
ltibia 23.8115
lfoot -11.3939 11.2458
ltoes -12.8262
402
root -0.126197 17.8425 -25.5601 2.93725 11.5069 3.4271
lowerback 4.00062 -1.39291 -1.52419
upperback 0.4906 -1.86159 3.19137
thorax -1.58308 -0.912859 4.24388
lowerneck -14.0499 0.0501085 3.12914
upperneck 25.6288 1.40208 -7.70794
head 10.6089 0.0472678 -3.11778
rclavicle -2.25621e-014 -1.59028e-014
rhumerus -27.735 -26.4065 -7.72266
rradius 32.2549
rwrist -6.3619
rhand -20.2057 -5.22047
rfingers 7.12502
rthumb 6.14127 -35.1115
lclavicle -2.25621e-014 -1.59028e-014
lhumerus -17.4603 22.5895 17.647
lradius 29.7192
lwrist 0.0408635
lhand -13.1802 5.79699
lfingers 7.12502
lthumb 12.9195 35.3771
rfemur -7.60933 -2.38253 15.9098
rtibia 33.2234
rfoot -18.1451 -29.393
rtoes -0.172721
lfemur -6.14354 -1.95347 -17.4896
ltibia 24.0152
lfoot -11.4273 11.0776
ltoes -12.9152
403
root -0.143706 17.8389 -25.5501 2.9227 11.6339 3.49119
lowerback 4.03639 -1.41742 -1.47366
upperback 0.486066 -1.89076 3.24496
thorax -1.60515 -0.927139 4.27372
lowerneck -14.0638 0.00985077 3.04216
upperneck 25.6189 1.38192 -7.76343
head 10.607 0.0230486 -3.12531
rclavicle 1.16289e-014 -1.43125e-014
rhumerus -27.7987 -26.4155 -7.67625
rradius 32.2364
rwrist -6.36284
rhand -20.1448 -5.17444
rfingers 7.12502
rthumb 6.20005 -35.0637
lclavicle 1.16289e-014 -1.43125e-014
lhumerus -17.442 22.5197 17.6437
lradius 29.7741
lwrist 0.130049
lhand -13.1871 5.79062
lfingers 7.12502
lthumb 12.9128 35.3711
rfemur -7.53735 -2.30048 15.9453
rtibia 33.2492
rfoot -18.2615 -29.5954
rtoes -0.000826759
lfemur -6.23134 -1.88286 -17.4694
ltibia 24.2284
lfoot -11.4651 10.8954
ltoes -12.9581
404
root -0.161167 17.8351 -25.5396 2.90446 11.75 3.56323
lowerback 4.06286 -1.43971 -1.42305
upperback 0.497895 -1.91744 3.2875
thorax -1.60576 -0.940766 4.29126
lowerneck -14.1107 -0.0296897 2.94093
upperneck 25.6164 1.35969 -7.79397
head 10.614 -0.00127865 -3.12217
rclavicle -2.44505e-014 6.36111e-015
rhumerus -27.8625 -26.47 -7.64725
rradius 32.2133
rwrist -6.34845
rhand -20.1631 -5.18157
rfingers 7.12502
rthumb 6.18233 -35.0714
lclavicle -2.44505e-014 6.36111e-015
lhumerus -17.4063 22.5272 17.6183
lradius 29.8138
lwrist 0.147761
lhand -13.2039 5.76292
lfingers 7.12502
lthumb 12.8966 35.3444
rfemur -7.46988 -2.22945 15.9702
rtibia 33.2901
rfoot -18.3774 -29.7899
rtoes 0.155652
lfemur -6.31692 -1.79657 -17.456
ltibia 24.4567
lfoot -11.5102 10.7
ltoes -12.9897
